<svg width="34" height="34" viewBox="0 0 34 34" fill="none" xmlns="http://www.w3.org/2000/svg">
<path d="M20.8379 22.8302L26.6712 22.8254L25.0307 21.1876C24.8104 20.9676 24.6356 20.7064 24.5162 20.4188C24.3969 20.1312 24.3354 19.823 24.3352 19.5117L24.3322 15.8273C24.3313 14.3794 23.8816 12.9673 23.0448 11.7856C22.2081 10.6039 21.0256 9.71067 19.6601 9.22898L19.6598 8.83114C19.6593 8.2123 19.413 7.61901 18.975 7.18179C18.5371 6.74456 17.9434 6.49921 17.3245 6.49972C16.7057 6.50022 16.1124 6.74654 15.6752 7.18448C15.238 7.62242 14.9926 8.21612 14.9931 8.83495L14.9934 9.23279C12.2759 10.1963 10.3297 12.7914 10.3322 15.8388L10.3352 19.5243C10.3357 20.1519 10.0865 20.7553 9.64238 21.2002L8.00455 22.8407L13.8379 22.8359M20.8379 22.8302L13.8379 22.8359M20.8379 22.8302L20.8388 23.9969C20.8396 24.9251 20.4716 25.8156 19.8157 26.4726C19.1599 27.1295 18.2699 27.4989 17.3417 27.4997C16.4134 27.5005 15.5229 27.1324 14.866 26.4766C14.2091 25.8208 13.8396 24.9308 13.8388 24.0026L13.8379 22.8359" stroke="#333333" stroke-width="2" stroke-linecap="round" stroke-linejoin="round"/>
</svg>
