<svg width="24" height="28" viewBox="0 0 24 28" fill="none" xmlns="http://www.w3.org/2000/svg">
<path d="M23.3383 7.36717C23.0453 6.78642 22.6059 6.28717 22.0443 5.94585L13.4161 0.744529C13.0254 0.586604 12.6104 0.5 12.1953 0.5C11.7803 0.5 11.3701 0.576415 10.9746 0.73434L2.29754 5.84396C1.73112 6.18019 1.28677 6.67434 0.988904 7.25C0.725223 7.75434 0.578734 8.33 0.573851 8.92604L0.549436 13.7351V13.9491L0.525021 18.7581C0.520138 19.3542 0.666627 19.9247 0.925425 20.4342C1.2184 21.0149 1.65787 21.5142 2.21941 21.8555L10.8476 27.0568C11.2383 27.2147 11.6533 27.3013 12.0684 27.3013C12.4834 27.3013 12.8936 27.2249 13.2891 27.067L21.9662 21.9574C22.5326 21.6211 22.977 21.127 23.2748 20.5513C23.5385 20.047 23.685 19.4713 23.6899 18.8753L23.7387 9.04321C23.7387 8.44717 23.5971 7.8766 23.3383 7.36717Z" fill="url(#paint0_linear_921_5683)"/>
<path d="M23.2314 7.43296C22.9433 6.8573 22.5038 6.36825 21.9471 6.02693L18.0115 3.62749L17.9529 3.59183L13.4117 0.881644C13.0259 0.723719 12.6158 0.64221 12.2056 0.637115C11.7954 0.637115 11.3852 0.71353 10.9995 0.866361L6.43391 3.5307L6.37531 3.56636L2.41522 5.92504C1.85367 6.25617 1.41421 6.74523 1.12123 7.3158C0.86243 7.81504 0.711058 8.38051 0.711058 8.97146L0.686642 13.7296V13.9435L0.662228 18.7016C0.657345 19.2926 0.803834 19.8581 1.05775 20.3624C1.34584 20.9381 1.78531 21.4271 2.34197 21.7684L6.27765 24.1679L6.33625 24.2035L10.8774 26.9137C11.2632 27.0716 11.6733 27.1532 12.0835 27.1582C12.4937 27.1582 12.9039 27.0818 13.2896 26.929L17.8552 24.2698L17.9187 24.2341L21.8788 21.8754C22.4403 21.5443 22.8798 21.0552 23.1728 20.4847C23.4316 19.9854 23.5829 19.4199 23.5829 18.829L23.6073 14.0709V13.8569L23.6318 9.09881C23.6318 8.50278 23.4902 7.9373 23.2314 7.43296Z" fill="url(#paint1_linear_921_5683)"/>
<path d="M6.29932 3.45981L6.3628 3.42415L10.9772 0.73434C11.3727 0.581509 11.7829 0.5 12.198 0.5L12.1687 6.95962L6.29932 3.45981Z" fill="#3475B4"/>
<path d="M23.2741 20.5484C23.5378 20.044 23.6843 19.4684 23.6892 18.8723L23.7136 14.0633L17.9956 17.395L23.2741 20.5484Z" fill="#2F7FBA"/>
<path d="M23.7165 13.8511L23.7409 9.04205C23.7458 8.44601 23.5993 7.87545 23.3405 7.36601L18.0327 10.4583L23.7165 13.8511Z" fill="#3C63AA"/>
<path d="M18.0329 10.4549L18.0671 3.5164L12.1685 6.95508L18.0329 10.4549Z" fill="#3E5EA7"/>
<path d="M12.1978 0.5C12.6128 0.5 13.023 0.586604 13.4185 0.744529L18.0085 3.48528L18.0671 3.52094L12.1685 6.95962L12.1978 0.5Z" fill="#3C63AA"/>
<path d="M17.9644 24.3451L21.9684 21.961C22.5348 21.6248 22.9792 21.1306 23.277 20.5549L17.9985 17.4066L17.9644 24.3451Z" fill="#219ECC"/>
<path d="M17.9956 17.3998L23.7136 14.063V13.8491L18.0298 10.4563L17.9956 17.3998Z" fill="#3475B4"/>
<path d="M23.3405 7.36263C23.0475 6.78188 22.6081 6.28263 22.0465 5.94131L18.0669 3.5164L18.0327 10.4549L23.3405 7.36263Z" fill="#405BA5"/>
<path d="M13.2891 27.0729L17.9035 24.3831L17.967 24.3475L12.0977 20.8477L12.0684 27.3073C12.4785 27.3073 12.8936 27.2258 13.2891 27.0729Z" fill="#4DB2AA"/>
<path d="M6.2627 24.3271L10.8478 27.0627C11.2385 27.2207 11.6535 27.3073 12.0686 27.3073L12.0979 20.8477L6.19922 24.2863L6.2627 24.3271Z" fill="#5DB99E"/>
<path d="M17.9987 17.4127L12.1343 13.9078L12.1001 20.8514L17.9987 17.4127Z" fill="#2CA5C4"/>
<path d="M0.575684 8.92367L0.55127 13.7327L6.26924 10.401L0.990737 7.25273C0.727057 7.75707 0.575684 8.32764 0.575684 8.92367Z" fill="#41AEB3"/>
<path d="M12.0954 20.8514L12.1296 13.9078L9.18028 15.6297L6.23096 17.3465L12.0954 20.8514Z" fill="#38AABA"/>
<path d="M9.18028 15.6279L12.1296 13.9061L6.26514 10.4062L6.23096 17.3447L9.18028 15.6279Z" fill="#3AABB9"/>
<path d="M6.26924 10.4062L0.55127 13.7379V13.957L6.23506 17.3447L6.26924 10.4062Z" fill="#50B4A8"/>
<path d="M0.549436 13.9605L0.525021 18.7696C0.520138 19.3656 0.666627 19.9362 0.925425 20.4456L6.23322 17.3534L0.549436 13.9605Z" fill="#5FBA9C"/>
<path d="M17.9987 17.4094L12.1001 20.8481L17.9646 24.3479L17.9987 17.4094Z" fill="#35A9BD"/>
<path d="M6.2334 17.3461L6.19922 24.2897L12.0979 20.851L6.2334 17.3461Z" fill="#5EB99D"/>
<path d="M18.0305 10.4695L12.1318 13.9082L17.9963 17.4131L18.0305 10.4695Z" fill="#298EC2"/>
<path d="M12.166 6.96797L12.1318 13.9065L18.0305 10.4678L12.166 6.96797Z" fill="#2F80BA"/>
<path d="M2.29741 5.85055C1.73098 6.18678 1.28663 6.68093 0.98877 7.25659L6.26727 10.4049L6.30145 3.4664L2.29741 5.85055Z" fill="#26A2C8"/>
<path d="M6.30176 3.4664L6.26758 10.4049L12.1662 6.96621L6.30176 3.4664Z" fill="#2399C9"/>
<path d="M6.23358 17.3461L0.925781 20.4383C1.21876 21.0191 1.65823 21.5183 2.21977 21.8597L6.1994 24.2846L6.23358 17.3461Z" fill="#64BF9C"/>
<path d="M12.1662 6.96797L6.26758 10.4067L12.132 13.9065L12.1662 6.96797Z" fill="#2693C6"/>
<path d="M20.5475 13.9044C20.5377 17.338 17.9351 19.5388 13.9457 20.0533L13.9408 22.1267L10.3079 22.1165L10.3128 20.0431C6.30871 19.5082 3.71096 17.2922 3.72073 13.8586C3.7305 9.96651 6.40637 7.80651 10.342 7.32255L10.3469 5.63632L13.9799 5.64651L13.975 7.33274C17.9058 7.83708 20.5524 10.0073 20.5475 13.9044ZM13.9555 16.7012C15.5864 16.309 16.6899 15.3054 16.6948 13.7007C16.6997 12.045 15.5864 11.0771 13.9701 10.6848L13.9555 16.7012ZM10.3225 16.691L10.3372 10.6746C8.70625 11.0567 7.57828 12.0246 7.5734 13.6752C7.56852 15.2799 8.66719 16.2886 10.3225 16.691Z" fill="white"/>
<defs>
<linearGradient id="paint0_linear_921_5683" x1="5.60195" y1="24.0522" x2="19.636" y2="4.00385" gradientUnits="userSpaceOnUse">
<stop stop-color="#64BF9C"/>
<stop offset="0.4939" stop-color="#20A0CD"/>
<stop offset="1" stop-color="#405BA5"/>
</linearGradient>
<linearGradient id="paint1_linear_921_5683" x1="18.6571" y1="3.7684" x2="4.91962" y2="23.3969" gradientUnits="userSpaceOnUse">
<stop stop-color="#405BA5"/>
<stop offset="0.5" stop-color="#20A0CD"/>
<stop offset="1" stop-color="#5FBA9C"/>
</linearGradient>
</defs>
</svg>
