<svg width="16" height="17" viewBox="0 0 16 17" fill="none" xmlns="http://www.w3.org/2000/svg">
<path d="M8.00044 8.37813C8.15475 8.37813 8.30274 8.43943 8.41186 8.54854C8.52097 8.65766 8.58227 8.80565 8.58227 8.95996V11.3472C8.58227 11.4237 8.56722 11.4993 8.53798 11.5699C8.50874 11.6405 8.46589 11.7046 8.41186 11.7587C8.35783 11.8127 8.29369 11.8555 8.2231 11.8848C8.15251 11.914 8.07685 11.9291 8.00044 11.9291C7.92404 11.9291 7.84838 11.914 7.77779 11.8848C7.7072 11.8555 7.64306 11.8127 7.58903 11.7587C7.535 11.7046 7.49214 11.6405 7.4629 11.5699C7.43366 11.4993 7.41861 11.4237 7.41861 11.3472V8.95996C7.41861 8.80565 7.47991 8.65766 7.58903 8.54854C7.69814 8.43943 7.84613 8.37813 8.00044 8.37813ZM8.00044 6.05081C7.82239 6.05081 7.65163 6.12154 7.52573 6.24744C7.39983 6.37334 7.3291 6.5441 7.3291 6.72215C7.3291 6.9002 7.39983 7.07096 7.52573 7.19686C7.65163 7.32276 7.82239 7.39349 8.00044 7.39349H8.0076C8.18565 7.39349 8.35641 7.32276 8.48231 7.19686C8.60821 7.07096 8.67895 6.9002 8.67895 6.72215C8.67895 6.5441 8.60821 6.37334 8.48231 6.24744C8.35641 6.12154 8.18565 6.05081 8.0076 6.05081H8.00044Z" fill="#333333"/>
<path fill-rule="evenodd" clip-rule="evenodd" d="M14 8.95999C14 9.74792 13.8448 10.5281 13.5433 11.2561C13.2417 11.984 12.7998 12.6455 12.2426 13.2026C11.6855 13.7598 11.0241 14.2017 10.2961 14.5033C9.56815 14.8048 8.78793 14.96 8 14.96C7.21207 14.96 6.43185 14.8048 5.7039 14.5033C4.97595 14.2017 4.31451 13.7598 3.75736 13.2026C3.20021 12.6455 2.75825 11.984 2.45672 11.2561C2.15519 10.5281 2 9.74792 2 8.95999C2 7.36869 2.63214 5.84257 3.75736 4.71735C4.88258 3.59213 6.4087 2.95999 8 2.95999C9.5913 2.95999 11.1174 3.59213 12.2426 4.71735C13.3679 5.84257 14 7.36869 14 8.95999ZM8 13.7963C8.63512 13.7963 9.26402 13.6712 9.85079 13.4282C10.4376 13.1851 10.9707 12.8289 11.4198 12.3798C11.8689 11.9307 12.2251 11.3976 12.4682 10.8108C12.7112 10.224 12.8363 9.59511 12.8363 8.95999C12.8363 8.32487 12.7112 7.69598 12.4682 7.1092C12.2251 6.52243 11.8689 5.98928 11.4198 5.54018C10.9707 5.09109 10.4376 4.73484 9.85079 4.49179C9.26402 4.24875 8.63512 4.12365 8 4.12365C6.71732 4.12365 5.48718 4.63319 4.58019 5.54018C3.6732 6.44717 3.16366 7.67731 3.16366 8.95999C3.16366 10.2427 3.6732 11.4728 4.58019 12.3798C5.48718 13.2868 6.71732 13.7963 8 13.7963Z" fill="#333333"/>
</svg>
