<svg width="16" height="17" viewBox="0 0 16 17" fill="none" xmlns="http://www.w3.org/2000/svg">
<path d="M5.34337 6.31592C4.85542 6.31592 4.42169 6.53626 4.09639 6.92186C3.77108 7.30745 3.66265 7.80321 3.71687 8.24389L4.4759 14.0829C4.58434 14.9091 5.28916 15.46 6.10241 15.46H10.006C10.8193 15.46 11.4699 14.8541 11.6325 14.0278L12.3916 8.24389C12.4458 7.74813 12.3373 7.25236 12.012 6.92186C11.6867 6.59135 11.253 6.31592 10.7651 6.31592H5.34337ZM10.494 13.8625C10.494 14.138 10.2229 14.3032 9.95181 14.3032H6.04819C5.77711 14.3032 5.56024 14.0829 5.50602 13.8625L4.74699 8.02355C4.74699 7.8583 4.74699 7.69304 4.85542 7.58287C4.96386 7.4727 5.12651 7.36253 5.28916 7.36253H10.6566C10.8193 7.36253 10.9819 7.41762 11.0904 7.58287C11.1988 7.74813 11.253 7.8583 11.1988 8.02355L10.4398 13.8074L10.494 13.8625Z" fill="#333333"/>
<path d="M11.9578 4.66338H10.3313V4.11253C10.3313 3.17609 9.62651 2.45999 8.70482 2.45999H7.29518C6.37349 2.45999 5.66867 3.17609 5.66867 4.11253V4.66338H4.04217C3.71687 4.66338 3.5 4.88372 3.5 5.21423C3.5 5.54474 3.71687 5.76508 4.04217 5.76508H11.9578C12.2831 5.76508 12.5 5.54474 12.5 5.21423C12.5 4.88372 12.2831 4.66338 11.9578 4.66338ZM9.24699 4.66338H6.75301V4.11253C6.75301 3.78203 6.96988 3.56169 7.29518 3.56169H8.70482C9.03012 3.56169 9.24699 3.78203 9.24699 4.11253V4.66338Z" fill="#333333"/>
<path d="M9.40964 8.51931C9.13855 8.51931 8.86747 8.73965 8.81325 9.01508L8.54217 12.5956C8.54217 12.9261 8.75904 13.1464 9.03012 13.2015C9.30121 13.2015 9.57229 12.9812 9.57229 12.7058L9.84337 9.12525C9.84337 8.79474 9.62651 8.5744 9.35542 8.51931H9.40964Z" fill="#333333"/>
<path d="M6.64458 8.51931C6.31928 8.51931 6.10241 8.79474 6.15663 9.12525L6.42771 12.7058C6.42771 12.9812 6.6988 13.2015 6.96988 13.2015C7.29518 13.2015 7.51205 12.9261 7.45783 12.5956L7.18675 9.01508C7.18675 8.68457 6.91566 8.46423 6.59036 8.51931H6.64458Z" fill="#333333"/>
</svg>
